<?xml version="1.0" standalone="no"?>
<!DOCTYPE svg PUBLIC "-//W3C//DTD SVG 20010904//EN"
 "http://www.w3.org/TR/2001/REC-SVG-20010904/DTD/svg10.dtd">
<svg version="1.0" xmlns="http://www.w3.org/2000/svg"
 width="1024.000000pt" height="1024.000000pt" viewBox="0 0 1024.000000 1024.000000"
 preserveAspectRatio="xMidYMid meet">
<metadata>
Created by potrace 1.16, written by Peter Selinger 2001-2019
</metadata>
<g transform="translate(0.000000,1024.000000) scale(0.100000,-0.100000)"
fill="#000000" stroke="none">
<path d="M0 5120 l0 -5120 5120 0 5120 0 0 5120 0 5120 -5120 0 -5120 0 0
-5120z m6064 3428 c-4 -6 1 -17 12 -25 10 -7 157 -151 326 -319 169 -168 312
-303 317 -299 6 3 8 0 5 -8 -6 -16 64 -80 78 -71 4 3 5 -3 1 -12 -4 -11 -3
-15 5 -10 6 3 13 -3 17 -14 6 -20 43 -46 58 -42 5 1 6 -2 3 -7 -7 -11 94 -112
105 -105 5 3 6 -2 3 -11 -5 -12 -2 -16 12 -13 11 2 18 -2 17 -9 -3 -12 253
-263 268 -263 5 0 9 -7 9 -16 0 -11 -6 -14 -21 -9 -21 7 -22 5 -15 -51 16
-153 65 -844 86 -1229 34 -629 49 -928 54 -1055 4 -80 11 -251 16 -380 39
-921 51 -1817 30 -2215 -12 -219 -13 -235 -17 -235 -1 0 -227 -45 -500 -99
-510 -102 -1204 -239 -1693 -336 -151 -30 -450 -88 -665 -130 -214 -42 -430
-85 -480 -96 -49 -11 -97 -20 -105 -21 -8 0 -172 -32 -365 -71 -334 -66 -381
-74 -392 -63 -2 2 -6 202 -8 443 -2 241 -9 542 -15 668 -5 127 -17 390 -25
585 -15 356 -66 1272 -85 1535 -5 77 -14 226 -20 330 -6 105 -15 242 -20 305
-6 63 -17 210 -25 325 -8 116 -20 266 -25 335 -5 69 -19 240 -30 380 -65 833
-149 1650 -219 2115 -5 33 -8 61 -7 61 1 2 453 21 941 39 501 19 1332 52 1615
65 118 5 332 14 475 20 143 6 265 13 270 15 6 2 11 4 13 4 2 1 0 -4 -4 -11z"/>
<path d="M6032 8505 c-10 -21 -10 -25 0 -19 10 6 10 5 1 -7 -16 -19 -17 -138
-3 -319 17 -229 26 -300 38 -312 7 -7 12 -22 12 -34 0 -13 4 -25 9 -28 4 -3
11 -24 15 -48 4 -24 17 -52 31 -66 14 -14 25 -35 25 -48 0 -13 4 -24 9 -24 5
0 16 -18 25 -40 9 -22 23 -40 31 -40 8 0 15 -6 15 -12 0 -7 6 -4 12 6 14 25 4
260 -18 406 -33 219 -83 430 -118 498 -9 17 -16 37 -16 45 0 7 -13 25 -28 40
l-29 27 -11 -25z"/>
<path d="M3627 7462 c-20 -4 -20 10 -2 -277 8 -126 15 -241 15 -254 l0 -24
138 7 c188 10 184 8 180 65 l-3 46 -101 -3 -101 -4 -6 84 c-4 45 -9 133 -12
193 -9 176 -9 175 -54 172 -20 -1 -45 -3 -54 -5z"/>
<path d="M4440 7341 c-65 -68 -76 -179 -28 -279 24 -52 69 -82 120 -82 39 0
88 18 88 32 0 4 5 8 10 8 20 0 10 -68 -13 -96 -27 -31 -77 -36 -106 -10 -10 9
-34 16 -54 16 -34 0 -37 -2 -37 -29 0 -53 46 -81 134 -81 83 0 155 38 175 93
12 31 15 271 5 390 l-7 77 -48 0 c-37 0 -49 -4 -49 -15 0 -19 -9 -19 -34 0
-11 9 -41 15 -69 15 -45 0 -54 -4 -87 -39z m164 -54 c35 -26 47 -141 19 -188
-21 -35 -41 -43 -77 -29 -55 21 -76 161 -31 210 21 23 63 26 89 7z"/>
<path d="M4095 7350 c-76 -23 -132 -130 -120 -227 13 -103 57 -162 138 -184
178 -48 299 170 189 340 -41 63 -131 94 -207 71z m110 -106 c71 -76 21 -247
-63 -218 -54 19 -81 137 -47 204 25 47 73 54 110 14z"/>
<path d="M6009 6453 c-1 -76 0 -142 1 -148 1 -5 -1 -7 -5 -3 -4 4 -14 1 -22
-7 -8 -8 -26 -15 -40 -15 -40 0 -103 -22 -103 -35 0 -7 -6 -18 -14 -25 -8 -6
-16 -24 -18 -38 -4 -33 27 -54 205 -143 l120 -61 -7 -331 c-3 -183 -9 -809
-12 -1392 l-6 -1060 38 -25 c22 -14 68 -46 104 -71 77 -55 91 -60 110 -45 12
9 15 46 15 191 1 226 13 1703 21 2552 l7 643 -59 26 c-160 71 -296 124 -321
124 -10 0 -13 -30 -14 -137z"/>
<path d="M5365 6020 c-3 -5 1 -10 9 -10 9 0 16 5 16 10 0 6 -4 10 -9 10 -6 0
-13 -4 -16 -10z"/>
<path d="M5366 5970 c-3 -19 -11 -62 -16 -95 -14 -94 -24 -128 -40 -132 -8 -2
-46 -10 -85 -17 -38 -8 -72 -15 -75 -16 -3 -1 4 -5 15 -10 15 -6 16 -9 4 -9
-23 -1 -47 -32 -51 -66 -2 -16 -7 -34 -13 -38 -6 -6 -6 -10 3 -14 17 -7 15
-24 -2 -17 -8 3 -17 1 -21 -5 -4 -8 33 -11 119 -11 l126 0 -1 -27 c0 -24 -2
-25 -8 -8 -7 16 -9 14 -14 -14 -4 -18 -4 -44 -1 -57 7 -28 -9 -32 -32 -9 -9 8
-22 15 -30 15 -9 0 6 -16 33 -36 26 -20 53 -42 58 -49 6 -6 25 -19 43 -29 l32
-17 0 -1099 0 -1099 38 -28 c20 -15 39 -30 42 -33 18 -20 72 -50 80 -45 6 4 7
-1 3 -11 -4 -12 -2 -15 8 -12 8 3 20 -2 28 -10 13 -13 16 -12 22 4 6 17 7 16
11 -6 13 -76 18 223 20 1310 3 1069 -2 1663 -11 1455 -2 -38 -6 -81 -10 -95
-7 -24 -7 -24 -14 9 -4 18 -7 69 -7 112 0 44 -3 79 -8 79 -4 0 -6 -19 -5 -42
2 -31 1 -37 -6 -23 -4 11 -11 19 -15 18 -15 -7 -27 -1 -50 22 -14 14 -30 25
-35 25 -6 0 -16 20 -22 45 -12 46 -39 63 -39 24 0 -11 -4 -17 -10 -14 -5 3
-10 1 -10 -6 0 -28 -19 8 -33 61 l-14 55 -7 -35z"/>
<path d="M5281 5488 c0 -26 3 -49 7 -52 4 -2 6 12 4 32 -6 62 -10 69 -11 20z"/>
<path d="M4640 5388 c-1 -100 -12 -203 -22 -209 -6 -4 -31 -9 -56 -13 -25 -3
-63 -11 -86 -18 -39 -10 -40 -12 -16 -19 15 -4 18 -7 8 -8 -12 -1 -19 -13 -24
-38 -4 -21 -10 -40 -14 -43 -4 -3 -9 -21 -12 -40 l-6 -35 92 3 92 3 -4 -42
c-3 -23 -9 -47 -14 -53 -5 -6 -14 -19 -21 -28 -7 -9 -24 -19 -39 -21 -15 -1
-30 -6 -34 -10 -7 -7 -74 29 -86 47 -4 6 -35 6 -90 -2 -46 -7 -155 -21 -243
-33 -88 -12 -162 -24 -165 -26 -3 -3 -4 -78 -3 -166 0 -89 -2 -148 -6 -132
l-7 30 -5 -30 c-9 -55 2 -185 16 -185 9 0 14 -73 19 -307 3 -170 11 -483 17
-698 l10 -390 87 -83 c48 -46 110 -104 139 -129 l52 -45 72 14 c52 9 65 14 48
19 -13 3 -28 2 -34 -3 -5 -4 -17 -8 -27 -8 -16 0 -18 11 -18 114 0 63 -4 249
-10 413 -20 620 -32 1375 -23 1384 6 6 55 14 109 20 54 5 150 16 212 25 63 9
116 13 119 10 3 -3 8 -373 10 -822 l4 -816 47 -39 c127 -104 253 -200 229
-174 -4 5 0 17 9 27 16 16 16 110 10 1195 -8 1378 -6 1239 -16 1223 -6 -9 -11
-8 -18 7 -6 10 -31 30 -56 42 -25 13 -53 31 -63 40 -10 9 -36 25 -58 36 -22
11 -54 30 -71 42 -46 34 -54 30 -54 -29z"/>
<path d="M6722 3410 c0 -19 3 -57 8 -85 6 -40 7 -43 8 -15 0 19 -3 58 -8 85
-6 40 -7 43 -8 15z"/>
<path d="M6741 3184 c0 -11 3 -14 6 -6 3 7 2 16 -1 19 -3 4 -6 -2 -5 -13z"/>
<path d="M6687 3173 c-13 -12 -7 -23 13 -23 11 0 20 7 20 15 0 15 -21 21 -33
8z"/>
<path d="M6403 3113 c9 -2 23 -2 30 0 6 3 -1 5 -18 5 -16 0 -22 -2 -12 -5z"/>
<path d="M6525 3110 c27 -12 43 -12 25 0 -8 5 -22 9 -30 9 -10 0 -8 -3 5 -9z"/>
<path d="M6480 3100 c34 -11 60 -11 35 0 -11 5 -29 8 -40 8 -16 0 -15 -2 5 -8z"/>
<path d="M6396 3091 c-3 -4 6 -6 19 -3 14 2 25 6 25 8 0 8 -39 4 -44 -5z"/>
<path d="M6498 3073 c7 -3 16 -2 19 1 4 3 -2 6 -13 5 -11 0 -14 -3 -6 -6z"/>
<path d="M4650 3012 c0 -5 9 -17 20 -27 23 -21 27 -4 4 19 -17 18 -24 20 -24
8z"/>
<path d="M4645 2960 c-3 -6 1 -7 9 -4 18 7 21 14 7 14 -6 0 -13 -4 -16 -10z"/>
<path d="M5645 2930 c3 -5 8 -10 11 -10 2 0 4 5 4 10 0 6 -5 10 -11 10 -5 0
-7 -4 -4 -10z"/>
<path d="M4682 2820 c0 -19 2 -27 5 -17 2 9 2 25 0 35 -3 9 -5 1 -5 -18z"/>
<path d="M4302 2775 c0 -16 2 -22 5 -12 2 9 2 23 0 30 -3 6 -5 -1 -5 -18z"/>
<path d="M4660 2749 c0 -5 5 -7 10 -4 6 3 10 8 10 11 0 2 -4 4 -10 4 -5 0 -10
-5 -10 -11z"/>
<path d="M4608 2743 c6 -2 18 -2 25 0 6 3 1 5 -13 5 -14 0 -19 -2 -12 -5z"/>
<path d="M4408 2703 c6 -2 18 -2 25 0 6 3 1 5 -13 5 -14 0 -19 -2 -12 -5z"/>
</g>
</svg>
